<svg width="32" height="32" viewBox="0 0 32 32" fill="none" xmlns="http://www.w3.org/2000/svg">
<path d="M32 16C32 7.16344 24.8366 0 16 0C7.16344 0 0 7.16344 0 16C0 24.8366 7.16344 32 16 32C24.8366 32 32 24.8366 32 16Z" fill="#610023"/>
<path d="M14.7721 16.0369C15.3466 16.723 15.6293 17.4886 15.62 18.3336C15.5896 19.3047 15.2404 20.117 14.5723 20.7704C13.9141 21.4143 13.1165 21.7312 12.1794 21.7213L8.28803 21.6799C7.59754 21.6726 7.19514 21.4837 7.08082 21.1134C7.02344 20.9476 6.99662 20.6948 7.00034 20.3548L7.08894 12.2688C7.09149 12.0357 7.09828 11.8658 7.10932 11.759C7.13022 11.6524 7.18092 11.5266 7.26143 11.3818C7.4024 11.121 7.78853 10.994 8.41983 11.0007L12.1484 11.0403C13.0559 11.0499 13.8121 11.3688 14.4168 11.9969C15.0511 12.6351 15.3633 13.3961 15.3537 14.28C15.3466 14.921 15.1528 15.5067 14.7721 16.0369ZM13.0027 18.1601C13.0052 17.927 12.9777 17.7421 12.92 17.6055C12.8722 17.469 12.7844 17.3709 12.6568 17.3113C12.4604 17.2315 12.1846 17.1897 11.8295 17.1859C11.4744 17.1821 11.2089 17.1113 11.0328 16.9735C10.8567 16.8356 10.771 16.5578 10.7756 16.1402C10.7802 15.7128 10.8721 15.4321 11.0511 15.298C11.2401 15.164 11.5466 15.0992 11.9707 15.1037C12.3653 15.1079 12.6032 15.0085 12.6843 14.8053C12.7151 14.6988 12.7318 14.5241 12.7344 14.2813C12.7371 14.0385 12.6551 13.8676 12.4885 13.7687C12.3317 13.6699 12.0906 13.6188 11.7651 13.6153L9.69363 13.5933L9.63313 19.1151L12.0597 19.1409C12.6811 19.1475 12.9955 18.8206 13.0027 18.1601Z" fill="white"/>
<path d="M21.2559 16.4701C22.7495 17.9139 23.808 18.9986 24.4314 19.724C24.753 20.0869 24.9124 20.3946 24.9096 20.6471C24.907 20.8899 24.7065 21.1792 24.3082 21.515C23.91 21.841 23.5827 22.0027 23.3262 22C23.0796 21.9973 22.781 21.7902 22.4304 21.3785L19.2153 17.6869L19.1842 20.528C19.1816 20.7611 19.1699 20.931 19.149 21.0376C19.138 21.1443 19.0922 21.2701 19.0117 21.415C18.8707 21.6758 18.4846 21.8028 17.8533 21.7961C17.1628 21.7888 16.7604 21.5999 16.6461 21.2296C16.5886 21.0735 16.5617 20.8256 16.5654 20.4856L16.6542 12.385C16.6566 12.1616 16.6634 11.9965 16.6744 11.8898C16.6954 11.7734 16.7462 11.6428 16.8267 11.498C16.9677 11.2372 17.3538 11.1102 17.9851 11.1169C18.6756 11.1242 19.083 11.3082 19.2073 11.669C19.2548 11.8346 19.2767 12.0874 19.2729 12.4274L19.2424 15.2101C20.6002 13.7383 21.6986 12.5309 22.5376 11.5878C22.8873 11.1932 23.1903 10.9973 23.4468 11C23.7032 11.0028 24.0269 11.1762 24.4177 11.5203C24.8087 11.8548 25.0027 12.1483 25 12.4008C24.9973 12.6436 24.8462 12.9334 24.5465 13.2702C23.9673 13.9149 23.0697 14.7991 21.8538 15.9227L21.2559 16.4701Z" fill="white"/>
</svg>
